<svg width="40" height="40" viewBox="0 0 40 40" fill="none" xmlns="http://www.w3.org/2000/svg">
<g clip-path="url(#clip0_1_3)">
<path d="M15 8.33334H11.6667C10.7826 8.33334 9.93477 8.68453 9.30964 9.30965C8.68452 9.93477 8.33333 10.7826 8.33333 11.6667V31.6667C8.33333 32.5507 8.68452 33.3986 9.30964 34.0237C9.93477 34.6488 10.7826 35 11.6667 35H28.3333C29.2174 35 30.0652 34.6488 30.6904 34.0237C31.3155 33.3986 31.6667 32.5507 31.6667 31.6667V11.6667C31.6667 10.7826 31.3155 9.93477 30.6904 9.30965C30.0652 8.68453 29.2174 8.33334 28.3333 8.33334H25" stroke="black" stroke-width="2.33" stroke-linecap="round" stroke-linejoin="round"/>
<path d="M15 8.33333C15 7.44928 15.3512 6.60143 15.9763 5.97631C16.6014 5.35119 17.4493 5 18.3333 5H21.6667C22.5507 5 23.3986 5.35119 24.0237 5.97631C24.6488 6.60143 25 7.44928 25 8.33333C25 9.21739 24.6488 10.0652 24.0237 10.6904C23.3986 11.3155 22.5507 11.6667 21.6667 11.6667H18.3333C17.4493 11.6667 16.6014 11.3155 15.9763 10.6904C15.3512 10.0652 15 9.21739 15 8.33333Z" stroke="black" stroke-width="2.33" stroke-linecap="round" stroke-linejoin="round"/>
<path d="M16.6667 23.3333H23.3333" stroke="black" stroke-width="2.33" stroke-linecap="round" stroke-linejoin="round"/>
<path d="M20 20V26.6667" stroke="black" stroke-width="2.33" stroke-linecap="round" stroke-linejoin="round"/>
</g>
<defs>
<clipPath id="clip0_1_3">
<rect width="40" height="40" fill="white"/>
</clipPath>
</defs>
</svg>
